<mxfile host="app.diagrams.net" modified="2021-01-05T12:18:32.288Z" agent="5.0 (X11)" etag="4alN3kqZmpteHPTG9a1j" version="14.1.8" type="github">
  <diagram id="l9XU566XNp9PI93VXc15" name="Page-1">
    <mxGraphModel dx="868" dy="592" grid="1" gridSize="10" guides="1" tooltips="1" connect="1" arrows="1" fold="1" page="1" pageScale="1" pageWidth="827" pageHeight="1169" math="0" shadow="0">
      <root>
        <mxCell id="0" />
        <mxCell id="1" parent="0" />
        <mxCell id="tGUGthGcGomPQQDadQoO-15" value="Pool" style="swimlane;html=1;childLayout=stackLayout;resizeParent=1;resizeParentMax=0;startSize=20;horizontal=0;horizontalStack=1;" vertex="1" parent="1">
          <mxGeometry x="10" y="110" width="1490" height="260" as="geometry" />
        </mxCell>
        <mxCell id="tGUGthGcGomPQQDadQoO-16" value="BC4000" style="swimlane;html=1;startSize=20;" vertex="1" parent="tGUGthGcGomPQQDadQoO-15">
          <mxGeometry x="20" width="320" height="260" as="geometry" />
        </mxCell>
        <mxCell id="tGUGthGcGomPQQDadQoO-48" value="" style="verticalLabelPosition=bottom;verticalAlign=top;html=1;shape=mxgraph.flowchart.on-page_reference;" vertex="1" parent="tGUGthGcGomPQQDadQoO-16">
          <mxGeometry y="115" width="30" height="30" as="geometry" />
        </mxCell>
        <mxCell id="tGUGthGcGomPQQDadQoO-46" value="BC4000" style="swimlane;html=1;startSize=20;" vertex="1" parent="tGUGthGcGomPQQDadQoO-15">
          <mxGeometry x="340" width="360" height="260" as="geometry" />
        </mxCell>
        <mxCell id="tGUGthGcGomPQQDadQoO-45" value="BC4000" style="swimlane;html=1;startSize=20;" vertex="1" parent="tGUGthGcGomPQQDadQoO-15">
          <mxGeometry x="700" width="190" height="260" as="geometry" />
        </mxCell>
        <mxCell id="tGUGthGcGomPQQDadQoO-17" value="Lane 2" style="swimlane;html=1;startSize=20;" vertex="1" parent="tGUGthGcGomPQQDadQoO-15">
          <mxGeometry x="890" width="120" height="260" as="geometry" />
        </mxCell>
        <mxCell id="tGUGthGcGomPQQDadQoO-18" value="Lane 3" style="swimlane;html=1;startSize=20;" vertex="1" parent="tGUGthGcGomPQQDadQoO-15">
          <mxGeometry x="1010" width="120" height="260" as="geometry">
            <mxRectangle x="260" width="30" height="260" as="alternateBounds" />
          </mxGeometry>
        </mxCell>
        <mxCell id="tGUGthGcGomPQQDadQoO-42" value="Lane 3" style="swimlane;html=1;startSize=20;" vertex="1" parent="tGUGthGcGomPQQDadQoO-15">
          <mxGeometry x="1130" width="120" height="260" as="geometry">
            <mxRectangle x="260" width="30" height="260" as="alternateBounds" />
          </mxGeometry>
        </mxCell>
        <mxCell id="tGUGthGcGomPQQDadQoO-43" value="Lane 3" style="swimlane;html=1;startSize=20;" vertex="1" parent="tGUGthGcGomPQQDadQoO-15">
          <mxGeometry x="1250" width="120" height="260" as="geometry">
            <mxRectangle x="260" width="30" height="260" as="alternateBounds" />
          </mxGeometry>
        </mxCell>
        <mxCell id="tGUGthGcGomPQQDadQoO-44" value="Lane 3" style="swimlane;html=1;startSize=20;" vertex="1" parent="tGUGthGcGomPQQDadQoO-15">
          <mxGeometry x="1370" width="120" height="260" as="geometry">
            <mxRectangle x="260" width="30" height="260" as="alternateBounds" />
          </mxGeometry>
        </mxCell>
        <mxCell id="tGUGthGcGomPQQDadQoO-52" value="" style="edgeStyle=orthogonalEdgeStyle;rounded=0;orthogonalLoop=1;jettySize=auto;html=1;" edge="1" parent="1" source="tGUGthGcGomPQQDadQoO-49" target="tGUGthGcGomPQQDadQoO-51">
          <mxGeometry relative="1" as="geometry" />
        </mxCell>
        <mxCell id="tGUGthGcGomPQQDadQoO-49" value="" style="verticalLabelPosition=bottom;verticalAlign=top;html=1;shape=mxgraph.flowchart.on-page_reference;" vertex="1" parent="1">
          <mxGeometry x="140" y="225" width="30" height="30" as="geometry" />
        </mxCell>
        <mxCell id="tGUGthGcGomPQQDadQoO-50" value="" style="edgeStyle=orthogonalEdgeStyle;rounded=0;orthogonalLoop=1;jettySize=auto;html=1;" edge="1" parent="1" source="tGUGthGcGomPQQDadQoO-48" target="tGUGthGcGomPQQDadQoO-49">
          <mxGeometry relative="1" as="geometry" />
        </mxCell>
        <mxCell id="tGUGthGcGomPQQDadQoO-54" value="" style="edgeStyle=orthogonalEdgeStyle;rounded=0;orthogonalLoop=1;jettySize=auto;html=1;" edge="1" parent="1" source="tGUGthGcGomPQQDadQoO-51" target="tGUGthGcGomPQQDadQoO-53">
          <mxGeometry relative="1" as="geometry" />
        </mxCell>
        <mxCell id="tGUGthGcGomPQQDadQoO-51" value="" style="verticalLabelPosition=bottom;verticalAlign=top;html=1;shape=mxgraph.flowchart.on-page_reference;" vertex="1" parent="1">
          <mxGeometry x="250" y="225" width="30" height="30" as="geometry" />
        </mxCell>
        <mxCell id="tGUGthGcGomPQQDadQoO-53" value="" style="verticalLabelPosition=bottom;verticalAlign=top;html=1;shape=mxgraph.flowchart.on-page_reference;" vertex="1" parent="1">
          <mxGeometry x="360" y="225" width="30" height="30" as="geometry" />
        </mxCell>
      </root>
    </mxGraphModel>
  </diagram>
</mxfile>
